<svg
   xmlns="http://www.w3.org/2000/svg"
   width="1840"
   height="1200"
   viewBox="0 0 1840 1200"
   version="1.1">
   <title>modified SI to TTC and PSI to TTC. The new
model achieves an accuracy ranges from 87% to 90%.</title>
 
<defs>
  <pattern id="stripe" width="30" height="30" patternUnits="userSpaceOnUse" patternTransform="rotate(-45)">
    <rect width="29" height="30" transform="translate(0,0)" fill="#fff"></rect>
  </pattern>
  <mask id="maskstripe">
    <rect x="0" y="0" width="100%" height="100%" fill="url(#stripe)"></rect>
  </mask>      
</defs>



  <style>
    .findings rect {
  stroke: #333;
  stroke-width: 3px;
}
.grid rect{
  stroke: #ccc;
  stroke-width:2px;
  stroke-linecap:butt;
  stroke-linejoin:miter;
  stroke-opacity:1;
  fill: #fff;
}
.values text,
.axes text  {
  font-size:40px;
  font-family:sans-serif;
}

.measurements text {
  transform: rotate(-90deg);
  fill: white;
  font-size: 30px;
  shadow: 1px 1px #999;
  background-color: blue;
}

.rotate {
  transform: rotate(-90deg); 
}

.findings .visual {
  mask: url(#maskstripe);
}
</style>
  <g
     class="grid"
     transform="translate(62,-185)">
    <rect
       width="1440"
       height="900"
       y="300"
       x="50"
        />
    <rect
       width="1440"
       height="700"
       y="400"
       x="50"
        />
    <rect
       width="1440"
       height="500"
       y="500"
       x="50"
        />
    <rect
       width="1440"
       height="300"
       y="600"
       x="50"
        />
    <rect
       width="1440"
       height="100"
       y="700"
       x="50"
        />
  </g>
  <g
     class="findings"
     transform="translate(-70,-185)">
    <rect class="visual"
       style="fill:#014a01"
       width="100"
       height="430"
       y="770"
       x="220"
        />
    <rect  class="visual"
       style="fill:#056105"
       width="100"
       height="530"
       y="670"
       x="340"
        />
    <rect
       style="fill:#097609"
       width="100"
       height="550"
       y="650"
       x="460"
        />
    <rect
       style="fill:#0f8a0f"
       width="100"
       height="590"
       y="610"
       x="580"
        />
    <rect
       style="fill:#169c16"
       width="100"
       height="680"
       y="520"
       x="700"
        />
    <rect
       style="fill:#1eae1e"
       width="100"
       height="760"
       y="440"
       x="820"
        />
    <rect class="visual"
       style="fill:#097609"
       width="100"
       height="760"
       y="440"
       x="940"
        />
    <rect class="visual"
       style="fill:#097609"
       width="100"
       height="800"
       y="400"
       x="1060"
        />
    <rect class="visual"
       style="fill:#097609"
       width="100"
       height="810"
       y="390"
       x="1180"
        /> 
    <rect class="visual"
       style="fill:#097609"
       width="100"
       height="840"
       y="360"
       x="1300"
        />


    <rect class="visual"
       style="fill:#760909"
       width="100"
       height="885"
       y="315"
       x="1420"
        />
  </g>

  <g class="values" transform="translate(-150,0)">
  <text
     x="308"
     y="570">
     0.43
   </text>
  <text
     x="430"
     y="470">
     0.53
   </text>
  <text
     x="553"
     y="450">
     0.55
   </text>
  <text
     x="670"
     y="410">
     0.59
   </text>
  <text
     x="785"
     y="320">
     0.68
   </text>
  <text
     x="910"
     y="240">
     0.76
   </text>
  <text
     x="1030"
     y="240">
     0.76
   </text>
  <text
     x="1150"
     y="200">
     0.80
   </text>
  <text
     x="1270"
     y="190">
     0.81
   </text>
  <text 
     x="1390"
     y="160">
     0.84
   </text>

  <text 
     x="1440"
     y="110">
     0.87 to 0.90
   </text>


</g>

<g class="measurements" transform="translate(-150,0)">

  <text
     x="-1000"
     y="360">PSI (Visually Complete)
   </text>

  <text
     x="-1000"
     y="480">SpeedIndex (Visually Complete)
   </text>

  <text
     x="-1000"
     y="600">LoadTime
   </text>

  <text
     x="-1000"
     y="720">TTFB
   </text>

  <text
     x="-1000"
     y="840">DomContentLoadedEventEnd
   </text>

  <text
     x="-1000"
     y="960">Render Start
   </text>

  <text
     x="-1000"
     y="1080">PSI (TTC)
   </text>  
   <text
     x="-1000"
     y="1200">PSI (Page Load Time)
   </text>

  <text
     x="-1000"
     y="1320">Speed Index (Page Load Time)
   </text>
     <text
     x="-1000"
     y="1440">Speed Index (TTC)
   </text>

     <text
     x="-1000"
     y="1560">SI (TTC) + PSI (TTC) + render
   </text>
 </g> 

 <g class="axes">
    <text
     x="600"
     y="1100">Performance Indicator  
   </text>

  <text
     x="-700"
     y="60" class="rotate">Match Fraction  
   </text>
 </g>
</svg>
